<svg width="192" height="192" xmlns="http://www.w3.org/2000/svg">
  <g fill="none" fill-rule="evenodd">
    <circle fill="#008CBE" cx="96" cy="96" r="96"/>
    <path d="M108.37 109.5l.38.01a23.15 23.15 0 11-22.82 17.42 4.25 4.25 0 018.24 2.1l-.07.3a14.65 14.65 0 1014.27-11.31H52.75a4.25 4.25 0 01.12-8.51h55.5zm25.28-54.8a23.15 23.15 0 01.38 46.3H40.35a4.25 4.25 0 01-.12-8.5h93.42a14.65 14.65 0 10-14.27-11.31l.07.29a4.25 4.25 0 01-8.24 2.1 23.19 23.19 0 0122.44-28.88zM81.22 37.69a23.15 23.15 0 01.39 46.3H30.45a4.25 4.25 0 01-.12-8.5h50.89a14.65 14.65 0 10-14.26-11.31l.07.29a4.25 4.25 0 11-8.24 2.1 23.19 23.19 0 0122.43-28.88z" fill="#FFF" fill-rule="nonzero"/>
  </g>
</svg>
